<?xml version="1.0" encoding="utf-8"?>
<!-- Generator: Adobe Illustrator 21.1.0, SVG Export Plug-In . SVG Version: 6.00 Build 0)  -->
<svg version="1.1" id="Layer_1" xmlns="http://www.w3.org/2000/svg" xmlns:xlink="http://www.w3.org/1999/xlink" x="0px" y="0px"
	 viewBox="0 0 282.3 282.3" style="enable-background:new 0 0 1784.6 282.3;" xml:space="preserve">
<style type="text/css">
	.st0{fill:#FFFFFF;}
	.st1{fill:#FFFFFF;}
</style>
<path class="st0" d="M282.7,162.9l-6.6-3.8h0l-9.3-5.4l-26.3-15.3c-0.2-0.1-0.3-0.4-0.2-0.7l15.8-27.2c11.3-19.3,13.3-43,4.2-63.4
	c-5.1-11.4-13.1-21.1-23.1-28.1l0,0l0,0c-1.6-1.1-3.2-2.2-4.9-3.2c-10.3-6-22.1-9.2-34.1-9.2l-92-0.4h0c-0.1,0-0.2,0.1-0.2,0.1
	c0,0-0.1,0-0.1,0c-0.1,0.1-0.1,0.2-0.1,0.4l-0.2,48.7c0,0.1-0.1,0.3-0.1,0.4c0,0-0.1,0-0.1,0.1c-0.1,0-0.1,0.1-0.2,0.1l-28.2-0.1
	c-0.1,0-0.2,0-0.3,0c-0.8,0-1.7,0.1-2.5,0.1c-0.8,0-1.6,0-2.4,0.1c-0.9,0.1-1.8,0.2-2.7,0.3c-0.8,0.1-1.5,0.1-2.3,0.2
	c-0.9,0.1-1.8,0.3-2.7,0.5c-0.7,0.1-1.4,0.2-2.2,0.4c-0.9,0.2-1.8,0.4-2.8,0.7c-0.7,0.2-1.4,0.3-2.1,0.5c-0.9,0.3-1.9,0.6-2.8,0.9
	c-0.6,0.2-1.3,0.4-1.9,0.6c-0.9,0.3-1.9,0.7-2.8,1.1c-0.6,0.2-1.2,0.5-1.8,0.7c-0.9,0.4-1.8,0.8-2.7,1.3c-0.6,0.3-1.2,0.5-1.7,0.8
	c-0.9,0.5-1.8,1-2.7,1.5c-0.5,0.3-1.1,0.6-1.6,0.9c-0.9,0.5-1.7,1.1-2.6,1.7c-0.5,0.3-1,0.6-1.5,1c-0.8,0.6-1.7,1.2-2.5,1.9
	c-0.5,0.4-1,0.7-1.4,1.1c-0.8,0.7-1.6,1.4-2.4,2.1c-0.4,0.4-0.9,0.7-1.3,1.1c-0.8,0.7-1.5,1.5-2.2,2.3c-0.4,0.4-0.8,0.8-1.2,1.2
	c-0.7,0.8-1.4,1.6-2,2.4c-0.4,0.5-0.8,0.9-1.1,1.3c-0.7,0.8-1.3,1.7-1.9,2.6c-0.3,0.5-0.7,0.9-1,1.4c-0.7,1-1.3,2-1.9,3
	c-0.2,0.4-0.5,0.8-0.7,1.2c-0.8,1.5-1.6,2.9-2.3,4.5c-9.5,20.1-8.6,43.2,2.6,62.9L60.1,236c0.1,0.2,0.4,0.3,0.7,0.2l40.9-23.4
	c0.2-0.1,0.5-0.1,0.7,0.2l16.4,28.7c0.8,1.4,1.7,2.8,2.6,4.2c0.2,0.3,0.4,0.6,0.6,0.8c0.8,1.1,1.6,2.2,2.4,3.3
	c0.2,0.2,0.3,0.4,0.5,0.6c0.9,1.2,1.9,2.3,2.9,3.4c0.1,0.1,0.2,0.2,0.3,0.3c4.6,4.9,9.8,9.2,15.6,12.5c12.2,7.1,26.7,10.3,41.1,8.9
	c22.2-2.1,41.8-15.6,53.1-34.9l45-77.3C283,163.4,283,163.1,282.7,162.9z M128.8,29.7h69.3c16.3,0.1,30.9,8.5,38.9,22.7
	c7.5,13.2,7.9,28.7,1.3,42.1c-1.1-2.7-2.4-5.2-3.9-7.7c-7.7-12.3-20-20.1-34-21.9c-0.8-0.2-1.5-0.3-2.4-0.3l-1,0
	c-1.5-0.1-3.1-0.1-4.6-0.1l0,0.1h-63.7L128.8,29.7z M207.8,71.9c9.1,3.1,17,9.1,22.3,17.6c2.2,3.5,3.8,7.3,4.9,11.2l-53.9,93
	c-1.6,2.7-5.5,2.8-7.2,0.1l-17.2-27.7l50-86.2C208.6,76.8,208.4,73.9,207.8,71.9z M31.3,136.1c-3.3-11.6-1.8-24,4.5-34.8
	c8.2-14.1,22.8-22.4,39.1-22.4l30.7,0.1v34.8l-30.8-0.1c-0.4,0-0.7,0.1-1,0.1c-15.9-0.7-30.7,6.3-40.3,19.2
	C32.6,134,32,135.1,31.3,136.1z M177.9,252.9c-8.1,0-15.9-2.2-22.5-6.1c-6.7-3.9-12.3-9.6-16.4-16.6l-28.3-49.4l-15.8,9.1l-4.9,2.9
	l0,0l-21,12.1l-33.4-58.4c-0.7-1.3-1.3-2.6-1.9-3.9c1.1-2.2,2.3-4.4,3.9-6.4c6.9-9.3,17-15.2,28-16.7c-0.9,1.8-2.2,5.5,0.2,9.7
	l16.4,28.6l40.7-23.9l46.3,79.1c0.7,1.2,1.5,2.1,2.4,2.8c7.8,10.2,19.3,16.8,32.5,18.2c3.6,0.4,7.2,0.4,10.7,0
	C206.3,245.9,192.8,253,177.9,252.9z M218.5,228.1c-4.5,1-9.1,1.3-13.8,0.8c-9.3-1-17.7-5-24.2-11.1c2.1-0.5,4.7-1.6,6.5-4.8
	l34.4-59l30.1,17.5L218.5,228.1z"/>
</svg>
